<svg xmlns="http://www.w3.org/2000/svg" viewBox="0 0 80 60"><style>#passport { fill: #2e2e2e } @media (prefers-color-scheme:dark) { #passport { fill: #fff } }</style><path fill-rule="evenodd" clip-rule="evenodd" d="M6 0H74C77.3 0 80 2.7 80 6V54C80 57.3 77.3 60 74 60H6C2.7 60 0 57.3 0 54V6C0 2.7 2.7 0 6 0Z" fill="url(#gradient)"/><path fill-rule="evenodd" clip-rule="evenodd" d="M22.2 60L37.2 30L22.2 0H17.7L32.7 30L17.7 60H22.2ZM34.2 60L49.2 30L34.2 0H29.7L44.7 30L29.7 60H34.2ZM46.2 60L61.2 30L46.2 0H41.7L56.7 30L41.7 60H46.2Z" fill="white"/><defs><linearGradient id="gradient" x1="40" y1="0.02" x2="40" y2="60.02" gradientUnits="userSpaceOnUse"><stop stop-color="#80DDF3"/><stop offset="1" stop-color="#4990E2"/></linearGradient></defs></svg>
